<svg version="1.2" xmlns="http://www.w3.org/2000/svg" viewBox="0 0 1558 402" width="1558" height="402">
	<title>tradeweb-svg</title>
	<style>
		.s0 { fill: #00b6de } 
		.s1 { fill: #002d5b } 
	</style>
	<g id="Layer">
		<g id="Layer">
			<path id="Layer" fill-rule="evenodd" class="s0" d="m149.8 313.7c-3.7 3.8-9.8 4-13.6 0.4-3.9-3.7-4-9.7-0.4-13.6 3.7-3.8 9.7-4 13.6-0.4 3.8 3.6 4 9.7 0.4 13.6zm117.7-46.1c-3.7 3.9-9.8 4-13.6 0.4-3.9-3.6-4-9.7-0.4-13.5 3.7-3.9 9.7-4.1 13.6-0.4 3.8 3.6 4 9.7 0.4 13.5zm42.4-140.4c-3.6 3.8-9.7 4-13.5 0.4-3.9-3.6-4-9.7-0.4-13.6 3.6-3.8 9.7-4 13.6-0.3 3.8 3.6 4 9.7 0.3 13.5zm-62 118.1c-4.7 5-12.5 5.1-17.4 0.5-4.9-4.7-5.2-12.4-0.5-17.4 4.7-4.9 12.4-5.1 17.4-0.5 4.9 4.7 5.1 12.5 0.5 17.4zm33.3-120.4c-4.7 5-12.4 5.2-17.4 0.5-4.9-4.7-5.2-12.4-0.5-17.4 4.7-4.9 12.5-5.1 17.4-0.4 4.9 4.6 5.1 12.4 0.5 17.3zm-141.7 166.4c-4.6 5-12.4 5.2-17.4 0.5-4.9-4.6-5.1-12.4-0.4-17.3 4.6-5 12.4-5.2 17.3-0.5 5 4.6 5.2 12.4 0.5 17.3zm85.1-265.5c-3.8 4-10.1 4.2-14.1 0.4-4-3.8-4.2-10.1-0.4-14.1 3.8-4 10.1-4.2 14.1-0.4 4 3.8 4.2 10.1 0.4 14.1zm-182.7 226.6c-2.7 2.8-7.2 3-10.1 0.2-2.9-2.7-3-7.2-0.3-10 2.7-2.9 7.2-3 10.1-0.3 2.8 2.7 3 7.2 0.3 10.1zm-29.6-92.8c-2.7 2.9-7.2 3-10.1 0.3-2.8-2.7-3-7.2-0.3-10.1 2.8-2.8 7.3-3 10.1-0.3 2.9 2.7 3 7.2 0.3 10.1zm36.3 69.6c-3.6 3.8-9.7 4-13.5 0.3-3.9-3.6-4-9.6-0.4-13.5 3.7-3.8 9.7-4 13.6-0.4 3.8 3.7 4 9.7 0.3 13.6zm80.9 33.9c-5.4 5.8-14.6 6.1-20.4 0.6-5.8-5.5-6.1-14.7-0.6-20.5 5.5-5.8 14.7-6.1 20.5-0.6 5.8 5.5 6 14.7 0.5 20.5zm92.5-42.4c-5.5 5.9-14.6 6.1-20.4 0.6-5.9-5.5-6.1-14.6-0.6-20.4 5.5-5.8 14.6-6.1 20.5-0.6 5.7 5.5 6 14.7 0.5 20.4zm-21.6-177.4c-5 5.3-13.4 5.5-18.7 0.5-5.3-5-5.5-13.3-0.5-18.6 5-5.3 13.3-5.6 18.6-0.6 5.3 5 5.6 13.4 0.6 18.7zm-80.5-25c-3.9 4.1-10.4 4.3-14.5 0.4-4.1-3.9-4.3-10.4-0.4-14.5 3.9-4.2 10.4-4.3 14.5-0.5 4.1 4 4.3 10.5 0.4 14.6zm-93.6 133.4c-5.8 0-10.6-4.7-10.6-10.6 0-5.8 4.8-10.6 10.6-10.6 5.9 0 10.6 4.8 10.6 10.6 0 5.9-4.7 10.6-10.6 10.6zm33.2 49.8c-4.7 4.9-12.4 5.1-17.4 0.5-4.9-4.7-5.1-12.5-0.5-17.4 4.7-4.9 12.5-5.1 17.4-0.5 4.9 4.7 5.2 12.4 0.5 17.4zm60.2 27.4c-6 6.4-16.2 6.7-22.6 0.6-6.5-6-6.7-16.2-0.7-22.6 6.1-6.5 16.2-6.7 22.7-0.7 6.4 6.1 6.7 16.3 0.6 22.7zm72.1-33.1c-6.1 6.5-16.3 6.8-22.7 0.7-6.4-6.1-6.7-16.2-0.6-22.6 6.1-6.5 16.2-6.8 22.6-0.7 6.5 6.1 6.7 16.2 0.7 22.6zm18-71.9c-6.1 6.4-16.2 6.6-22.6 0.6-6.5-6.1-6.8-16.2-0.7-22.6 6.1-6.5 16.2-6.7 22.7-0.7 6.4 6.1 6.6 16.2 0.6 22.7zm-36.5-59.2c-5.9 6.2-15.7 6.5-21.9 0.6-6.2-5.9-6.5-15.7-0.6-21.9 5.9-6.2 15.7-6.5 21.9-0.6 6.2 5.9 6.5 15.7 0.6 21.9zm-62.6-15c-5 5.2-13.3 5.5-18.6 0.5-5.3-5-5.5-13.3-0.5-18.6 5-5.2 13.3-5.5 18.6-0.5 5.3 5 5.5 13.3 0.5 18.6zm-68.6 40.5c-3.9 4.1-10.4 4.3-14.6 0.4-4.1-3.9-4.3-10.4-0.4-14.5 3.9-4.1 10.4-4.3 14.6-0.4 4.1 3.9 4.3 10.4 0.4 14.5zm49.7 2.9c-8.8 0-15.9-7.1-15.9-15.8 0-8.8 7.1-15.9 15.9-15.9 8.7 0 15.8 7.1 15.8 15.9 0 8.7-7.1 15.8-15.8 15.8zm7.6 103.6c-10.5 0-18.9-8.5-18.9-19 0-10.4 8.4-18.9 18.9-18.9 10.5 0 18.9 8.5 18.9 18.9 0 10.5-8.4 19-18.9 19zm54.9-59c-10.6 0-19.2-8.5-19.2-19.2 0-10.6 8.6-19.2 19.2-19.2 10.6 0 19.2 8.6 19.2 19.2 0 10.7-8.6 19.2-19.2 19.2zm-7.7-70c7 8.2 6.1 20.4-2 27.4-8.2 7-20.4 6.1-27.5-2-6.9-8.2-6-20.5 2.1-27.4 8.2-7 20.5-6.1 27.4 2zm-71.1 83.5c5.3 6.1 4.6 15.3-1.5 20.5-6.1 5.3-15.3 4.6-20.6-1.5-5.2-6.2-4.5-15.3 1.6-20.6 6-5.2 15.3-4.5 20.5 1.6zm79.9 23.1c-7.2 7.7-19.3 8-27 0.8-7.7-7.3-8-19.4-0.8-27 7.3-7.7 19.4-8.1 27.1-0.8 7.6 7.2 8 19.3 0.7 27zm-82.3-68.3c-5.4 5.8-14.5 6-20.3 0.6-5.8-5.5-6.1-14.6-0.6-20.4 5.5-5.8 14.6-6 20.4-0.6 5.7 5.5 6 14.6 0.5 20.4zm-8.8 32.5c-5.5 5.8-14.7 6.1-20.5 0.6-5.8-5.5-6-14.7-0.5-20.5 5.5-5.8 14.6-6.1 20.5-0.6 5.8 5.5 6 14.7 0.5 20.5z"/>
			<path id="Layer" fill-rule="evenodd" class="s1" d="m100 150.9c-14.5 0-26.3-11.7-26.3-26.3 0-14.6 11.8-26.4 26.3-26.4 14.6 0 26.4 11.8 26.4 26.4 0 14.6-11.8 26.3-26.4 26.3zm251.3 246.6h30.9v-188.6h67.1v-27.2h-165.1v27.2h67.1z"/>
			<path id="Layer" fill-rule="evenodd" class="s1" d="m436 239.8h27.2v24.4h0.6c7.8-16.4 24.5-28.1 41.2-28.1 8.6 0 13 0.9 19.1 2.1v26c-5.2-2.1-11.1-2.8-16.1-2.8-25.9 0-42.9 24.8-42.9 64.3v71.8h-29.1zm109.1 11.1c14.6-8.6 31.9-14.9 52-14.9 45.2 0 63.4 22.3 63.4 65.3v65.3c0 17.9 0.6 26.2 1.3 30.9h-27.3v-20.4h-0.6c-6.8 9.5-22.3 24.1-48.8 24.1-34.1 0-57.9-14.9-57.9-49.2 0-39.6 43.3-51.9 73.3-51.9 11.5 0 19.5 0 30.9 0.6 0-27.2-9.9-41.1-38.9-41.1-16.4 0-34.1 6.2-45.8 16 0 0-1.6-24.7-1.6-24.7zm86.3 71.4c-6.1 0-12.4-0.6-18.5-0.6-15.8 0-54.7 2.5-54.7 30.3 0 16.7 16 25.7 29.3 25.7 28.8 0 43.9-18 43.9-41.4 0 0 0-14 0-14zm171.4 52.9h-0.7c-7.7 11.8-25.6 26-53.8 26-47.6 0-67.7-42.4-67.7-85.4 0-42.3 22.3-79.8 68-79.8 27.6 0 43.3 10.9 52.3 25.4h0.6v-95.8h29.1v231.9h-27.8zm-47.7 2.4c32.8 0 46.4-32.4 46.4-58.7 0-29.4-15.2-59.4-46.7-59.4-31.5 0-43.9 29.7-43.3 58.5-0.6 24.7 12.4 59.6 43.6 59.6zm227.3 13.3c-11.1 4.1-23.8 10.2-49.8 10.2-56 0-81.6-34-81.6-85.3 0-46.7 29.3-79.8 73.9-79.8 52.5 0 69.6 38.3 69.6 89.1h-112.6c0 31.2 24.4 52.5 51.9 52.5 19.2 0 41.5-9.9 48.6-15.7zm-18.9-87.6c0-24.1-14.2-43.8-39.3-43.8-28.4 0-40.1 23.5-42.3 43.9 0 0 81.6 0 81.6-0.1zm229.8 94.1h-33.7l-40.8-132.4h-0.7l-39.8 132.4h-33.7l-50.8-157.7h31.9l36.2 130.5h0.6l40.2-130.5h34.3l39.6 130.5h0.6l38.3-130.5h28.5zm181.5-6.5c-11.1 4-23.8 10.2-49.8 10.2-55.9 0-81.6-34-81.6-85.4 0-46.6 29.4-79.7 73.9-79.7 52.6 0 69.6 38.3 69.6 89h-112.6c0 31.3 24.5 52.6 52 52.6 19.2 0 41.4-9.9 48.5-15.8zm-18.8-87.5c0-24.1-14.3-43.9-39.3-43.9-28.4 0-40.2 23.5-42.4 43.9 0 0 81.7 0 81.7 0zm51.3-137.9h29.1v95.9h0.6c8.9-14.5 24.7-25.4 52.2-25.4 45.8 0 68 37.5 68 79.8 0 43.3-20 85.3-67.7 85.3-28.1 0-46-14.2-53.8-25.9h-0.6v22.2h-27.8zm75.8 94c-31.6 0-46.7 30-46.7 59.4 0 26.3 13.6 58.7 46.3 58.7 31.3 0 44.2-34.9 43.7-59.7 0.5-28.4-11.8-58.4-43.3-58.4z"/>
			<path id="Layer" fill-rule="evenodd" class="s0" d="m247.8 123.1c-5.5 5.8-14.7 6.1-20.5 0.6-5.8-5.5-6.1-14.6-0.6-20.5 5.5-5.8 14.7-6 20.5-0.5 5.8 5.5 6.1 14.6 0.6 20.4z"/>
		</g>
	</g>
</svg>